<svg xmlns="http://www.w3.org/2000/svg" width="24.488" height="29.964" viewBox="0 0 24.488 29.964">
  <g id="Apple-store-icon" transform="translate(0 0)">
    <g id="Group_1424" data-name="Group 1424" transform="translate(0 7.105)">
      <path id="Path_1168" data-name="Path 1168" d="M2310.981,1205.865c-2.533,4.4-.922,11.067,1.878,15.111,1.4,2.022,2.814,3.838,4.753,3.838l.111,0a5.86,5.86,0,0,0,2.206-.588,6.04,6.04,0,0,1,2.613-.619,5.69,5.69,0,0,1,2.487.6,5.26,5.26,0,0,0,2.383.571c2.183-.04,3.524-2,4.708-3.727a16.575,16.575,0,0,0,2.063-4.225l.008-.027a.246.246,0,0,0-.131-.3l-.017-.008a6.258,6.258,0,0,1-3.794-5.733,6.44,6.44,0,0,1,3.045-5.387l.022-.016a.243.243,0,0,0,.07-.344,7.085,7.085,0,0,0-5.574-3.027c-.158-.015-.321-.024-.486-.024a9.722,9.722,0,0,0-3.5.874,5.608,5.608,0,0,1-1.676.5,5.487,5.487,0,0,1-1.733-.506,8.4,8.4,0,0,0-3.056-.777h-.077A7.492,7.492,0,0,0,2310.981,1205.865Z" transform="translate(-2309.718 -1201.955)" fill="#707070"/>
    </g>
    <g id="Group_1425" data-name="Group 1425" transform="translate(11.92 0)">
      <path id="Path_1169" data-name="Path 1169" d="M2427.193,1135.617a6.837,6.837,0,0,0-4.516,2.317,6.4,6.4,0,0,0-1.623,4.752.246.246,0,0,0,.224.213c.1.008.211.012.318.012a5.787,5.787,0,0,0,4.263-2.187,6.755,6.755,0,0,0,1.588-4.889A.245.245,0,0,0,2427.193,1135.617Z" transform="translate(-2421.014 -1135.617)" fill="#707070"/>
    </g>
  </g>
</svg>
