<svg id="Belief" xmlns="http://www.w3.org/2000/svg" width="119.434" height="120.922" viewBox="0 0 119.434 120.922">
  <path id="Path_5327" data-name="Path 5327" d="M36.835,0,13.394,20.835,0,46.508l60.275,74.414,59.159-74.785L106.039,20.092,81.855,0Z" transform="translate(0 0)" fill="#e0f4ff"/>
  <path id="Path_5328" data-name="Path 5328" d="M83.343,46.041H37.206L13.395,26.88,0,52.553l15.44,9.86L60.646,75.249l45.021-12.836,13.766-10.232-13.011-25.3Z" transform="translate(0 -6.044)" fill="#71b4ff"/>
  <path id="Path_5329" data-name="Path 5329" d="M19.326,62.412,17.28,26.88,41.092,46.041Z" transform="translate(-3.886 -6.044)" fill="#92caff"/>
  <path id="Path_5330" data-name="Path 5330" d="M130.6,26.88l-.755,35.532L107.52,46.041Z" transform="translate(-24.177 -6.044)" fill="#94caff"/>
  <path id="Path_5331" data-name="Path 5331" d="M48,51.6,71.44,80.807,94.136,51.6Z" transform="translate(-10.793 -11.603)" fill="#93cbfd"/>
  <path id="Path_5332" data-name="Path 5332" d="M123.152,69.752,77.76,134.306,136.919,59.52Z" transform="translate(-17.485 -13.384)" fill="#8ed2fd"/>
  <path id="Path_5333" data-name="Path 5333" d="M60.275,134.413,15.441,69.86,0,60Z" transform="translate(0 -13.492)" fill="#b8dfff"/>
  <path id="Path_5334" data-name="Path 5334" d="M64.754,137.274l.372-51.717L19.92,72.72Z" transform="translate(-4.479 -16.352)" fill="#95cafe"/>
  <path id="Path_5335" data-name="Path 5335" d="M78.132,85.557l-.372,51.717L123.153,72.72Z" transform="translate(-17.485 -16.352)" fill="#71b3ff"/>
  <path id="Path_5336" data-name="Path 5336" d="M41.686,51.6l23.44,29.207L19.92,67.971Z" transform="translate(-4.479 -11.603)" fill="#71b2ff"/>
  <path id="Path_5337" data-name="Path 5337" d="M100.936,51.6,123.26,67.971,78.24,80.807Z" transform="translate(-17.593 -11.603)" fill="#def4ff"/>
</svg>
