<svg xmlns="http://www.w3.org/2000/svg" xmlns:xlink="http://www.w3.org/1999/xlink" width="233.5" height="92.708" viewBox="0 0 233.5 92.708">
  <defs>
    <clipPath id="clip-path">
      <rect id="Rectangle_18210" data-name="Rectangle 18210" width="167.647" height="75.208" transform="translate(0 0.001)" fill="#fff"/>
    </clipPath>
  </defs>
  <g id="Free-icon" transform="translate(-321.5 -407.5)">
    <g id="Group_7549" data-name="Group 7549" transform="translate(367 424.999)">
      <g id="Group_7548" data-name="Group 7548" clip-path="url(#clip-path)">
        <path id="Path_5167" data-name="Path 5167" d="M3.179.571,18.692,0a6.707,6.707,0,0,1,5.98,3.226l7.416,12.236a4.349,4.349,0,0,0,3.927,2.091l87.775-4.2s15.3-1.26,20.88,7.38c0,0,1.98,3.6-11.16,2.88s-1.62,7.2-1.62,7.2,5.76,3.96,17.46,1.26,17.46,5.58,17.46,5.58,6.3,13.68-15.66,14.76c-17.98.884-33.787.924-38.927.909a.758.758,0,0,1-.544-1.283L117.13,46.3s8.64-9.9-11.52-11.52-31.14,3.06-33.48,5.76c-1.5,1.736-3.455,5.628-4.656,8.187a4.19,4.19,0,0,1-3.86,2.408c-7.327-.108-27.24-.671-34.692-3.621a1.337,1.337,0,0,1-.227-2.373c4.087-2.615,13-9.227,9.775-15.4-4.14-7.92-21.96-.54-24.48,1.8L.376,5.385A3.3,3.3,0,0,1,3.179.571" fill="#fff"/>
        <path id="Path_5168" data-name="Path 5168" d="M72.13,47.021s3.172-10.19,24.3-9.36c16.9.664,19.2,2.57,19.171,4.688a3.534,3.534,0,0,1-1.18,2.468L83.645,73.762a5.335,5.335,0,0,1-3.832,1.444L61.131,74.57a3.261,3.261,0,0,1-2.68-4.949Z" fill="#fff"/>
        <path id="Path_5169" data-name="Path 5169" d="M10.465,45.15a2.234,2.234,0,0,1-.627-3.4l7.031-8.407s3.42-3.96,10.26-3.42,11.7,1.929,7.38,6.635S20.649,46.841,14.889,46.3a11.712,11.712,0,0,1-4.424-1.151" fill="#fff"/>
        <path id="Path_5170" data-name="Path 5170" d="M76.963,1.841H93.548a1.427,1.427,0,0,1,.946.359l7.659,6.788a1.425,1.425,0,0,1-.828,2.487L82.24,13.049a1.425,1.425,0,0,1-1.33-.672L75.75,4.014a1.425,1.425,0,0,1,1.213-2.173" fill="#fff"/>
        <path id="Path_5171" data-name="Path 5171" d="M112.929,64.3c0,4.208-1.8,7.62-4.02,7.62s-4.02-3.412-4.02-7.62,1.8-7.62,4.02-7.62,4.02,3.412,4.02,7.62" fill="#fff"/>
        <path id="Path_5172" data-name="Path 5172" d="M102.369,60.161s-2.04,6.24,1.08,11.76c0,0-8.34,1.08-11.64-2.04Z" fill="#fff"/>
      </g>
    </g>
    <line id="Line_175" data-name="Line 175" x2="24" transform="translate(322.5 431.5)" fill="none" stroke="#fff" stroke-linecap="round" stroke-width="2"/>
    <line id="Line_176" data-name="Line 176" x2="24" transform="translate(340.5 452.5)" fill="none" stroke="#fff" stroke-linecap="round" stroke-width="2"/>
    <line id="Line_177" data-name="Line 177" x2="24" transform="translate(411 428.5)" fill="none" stroke="#fff" stroke-linecap="round" stroke-width="2"/>
    <line id="Line_178" data-name="Line 178" x2="24" transform="translate(379 408.5)" fill="none" stroke="#fff" stroke-linecap="round" stroke-width="2"/>
    <line id="Line_179" data-name="Line 179" x2="24" transform="translate(393 498.5)" fill="none" stroke="#fff" stroke-linecap="round" stroke-width="2"/>
    <line id="Line_180" data-name="Line 180" x2="24" transform="translate(498 489.5)" fill="none" stroke="#fff" stroke-linecap="round" stroke-width="2"/>
    <line id="Line_181" data-name="Line 181" x2="24" transform="translate(530 445.5)" fill="none" stroke="#fff" stroke-linecap="round" stroke-width="2"/>
    <line id="Line_197" data-name="Line 197" x2="14.853" transform="translate(534.647 479.5)" fill="none" stroke="#fff" stroke-linecap="round" stroke-width="2"/>
    <line id="Line_182" data-name="Line 182" x2="24" transform="translate(496 428.5)" fill="none" stroke="#fff" stroke-linecap="round" stroke-width="2"/>
  </g>
</svg>
