<svg id="Mission" xmlns="http://www.w3.org/2000/svg" xmlns:xlink="http://www.w3.org/1999/xlink" width="128.266" height="128.051" viewBox="0 0 128.266 128.051">
  <defs>
    <clipPath id="clip-path">
      <rect id="Rectangle_18286" data-name="Rectangle 18286" width="128.266" height="128.051" fill="none"/>
    </clipPath>
  </defs>
  <g id="Group_7693" data-name="Group 7693" clip-path="url(#clip-path)">
    <path id="Path_5319" data-name="Path 5319" d="M70.407,94.547l-4.819,1.1a19.727,19.727,0,0,1-5.231-3.963c-1.257-1.25-2.175-3.057-4.291-3.187-1.877-4.163-5.712-6.544-8.784-9.62a27.5,27.5,0,0,0-5.667-5.594A16.286,16.286,0,0,1,42.7,67.063c1.468.229,2.421-.591,3.443-1.5A52.371,52.371,0,0,0,58.641,48.13c1.363-2.944,3.908-6.02,1.965-9.775,8.124-11.131,18.531-19.694,30.309-26.661,5.205-3.079,10.477-6.107,16.534-7.314a47.526,47.526,0,0,0,13.7,17.86c3.78,3.1,7.423,6.663,12.557,7.647-6.446,19.6-18.981,34.8-34.651,47.724-.382-2.175-1.745-1.254-2.99-1.008-7.329,1.451-13.181,5.7-18.89,10.1-2.737,2.111-6.075,3.893-6.77,7.839" transform="translate(-8.569 -0.902)" fill="#96cafd"/>
    <path id="Path_5320" data-name="Path 5320" d="M35.254,91.149a27.492,27.492,0,0,1,5.667,5.6c-10.385,3.24-17.245,9.95-15.882,20.284.384,2.909-1.585,5.181-2.883,7.579-.676,1.249-1.865,2.227-1.973,3.774-.09.179-.182.356-.273.533l.527-.28c2.919-1.136,5.757-2.6,8.772-3.351,10.345-2.594,17.587-8.374,20.5-18.921,2.115.13,3.034,1.938,4.29,3.187a19.739,19.739,0,0,0,5.231,3.963C52.376,126,42.865,134.286,27.645,134.22a29.833,29.833,0,0,0-13.04,2.912c-2.89,1.383-4.553.21-3.615-2.9,2.757-9.148,3.511-18.594,5.031-27.94.976-6,5.832-9.558,11.078-12.153a30,30,0,0,1,8.154-2.99" transform="translate(-2.209 -18.769)" fill="#75b4fa"/>
    <path id="Path_5321" data-name="Path 5321" d="M76.031,113.17c.7-3.947,4.033-5.729,6.77-7.839,5.709-4.4,11.561-8.654,18.89-10.1,1.245-.246,2.608-1.167,2.99,1.008,1.243,12.516-2.729,23.358-10.777,32.791-6.054,7.1-13.491,12.573-21.386,17.455-.98.606-2.081,1.73-3.154.636-1.15-1.172.269-2.151.847-3.068,4.627-7.352,8.579-14.891,7.436-24.027a19.707,19.707,0,0,0-1.615-6.851" transform="translate(-14.193 -19.525)" fill="#74b4fb"/>
    <path id="Path_5322" data-name="Path 5322" d="M52.036,47.165c1.944,3.756-.6,6.832-1.964,9.776A52.37,52.37,0,0,1,37.579,74.372c-1.021.91-1.974,1.73-3.443,1.5-9.394-3.3-18.094-1.407-26.388,3.52-1.811,1.077-3.619,2.157-5.436,3.224-.58.341-1.241.628-1.833.159-.806-.639-.442-1.416-.017-2.1,1.109-1.79,2.179-3.608,3.381-5.335,7.133-10.245,15.022-19.638,26.91-24.8C37.6,47.57,44.761,47.15,52.036,47.165" transform="translate(0 -9.712)" fill="#74b4fb"/>
    <path id="Path_5323" data-name="Path 5323" d="M150.779,28.985c-5.134-.984-8.777-4.55-12.557-7.647a47.532,47.532,0,0,1-13.7-17.861c7.044-2.983,14.307-4.494,21.9-2.717,4.718,1.1,7.235,4.829,7.456,10.85a42.308,42.308,0,0,1-3.1,17.374" transform="translate(-25.64 0)" fill="#74b4fb"/>
    <path id="Path_5324" data-name="Path 5324" d="M22.632,129.832c.11-1.546,1.3-2.524,1.975-3.773,1.3-2.4,3.267-4.669,2.883-7.578-1.363-10.334,5.5-17.044,15.882-20.285,3.072,3.075,6.906,5.456,8.783,9.62-2.908,10.547-10.15,16.326-20.5,18.92-3.014.756-5.852,2.215-8.771,3.352Z" transform="translate(-4.66 -20.22)" fill="#ddf3fd"/>
    <path id="Path_5325" data-name="Path 5325" d="M128.036,42.332A18.633,18.633,0,1,1,109.4,23.7a18.634,18.634,0,0,1,18.634,18.633" transform="translate(-18.691 -4.88)" fill="#daedf8"/>
    <path id="Path_5326" data-name="Path 5326" d="M123.067,44.072a11.926,11.926,0,1,1-11.926-11.926,11.926,11.926,0,0,1,11.926,11.926" transform="translate(-20.43 -6.619)" fill="#454867"/>
  </g>
</svg>
