<svg xmlns="http://www.w3.org/2000/svg" xmlns:xlink="http://www.w3.org/1999/xlink" width="211.886" height="107.566" viewBox="0 0 211.886 107.566">
  <defs>
    <clipPath id="clip-path">
      <rect id="Rectangle_18211" data-name="Rectangle 18211" width="149.001" height="106.456" fill="#fff"/>
    </clipPath>
  </defs>
  <g id="Premium-icon" transform="translate(-807.869 -407.89)">
    <g id="Group_7551" data-name="Group 7551" transform="translate(845 409)">
      <g id="Group_7550" data-name="Group 7550" transform="translate(0 0)" clip-path="url(#clip-path)">
        <path id="Path_5173" data-name="Path 5173" d="M22.9,66.324V99.038a57.035,57.035,0,0,0,43.109-20.18S41.547,76.719,22.9,66.324M40.8,89l-3.635-1.911L33.53,89l.695-4.049-2.941-2.867,4.064-.59,1.819-3.683L38.984,81.5l4.064.59-2.941,2.867Z" transform="translate(2.556 7.405)" fill="#fff"/>
        <path id="Path_5174" data-name="Path 5174" d="M22.9.012V32.727c18.65-10.395,43.109-12.535,43.109-12.535A57.035,57.035,0,0,0,22.9.012M38.984,17.553l-1.818,3.683-1.818-3.683-4.065-.59L34.225,14.1l-.695-4.049,3.636,1.911L40.8,10.047,40.107,14.1l2.94,2.867Z" transform="translate(2.556 0)" fill="#fff"/>
        <path id="Path_5175" data-name="Path 5175" d="M19.644,35.245S11.9,35.1,7.822,39.424c0,0,1.173,2.14,5.1,2.319,0,0-9.376,2.165-12.917,7.873a20.507,20.507,0,0,0,12.383,7.949A10.3,10.3,0,0,0,8.127,59.6s1.694,3.873,11.517,4.306Z" transform="translate(0 3.935)" fill="#fff"/>
        <path id="Path_5176" data-name="Path 5176" d="M90.618,61.881a12.761,12.761,0,1,1,12.761-12.761A12.774,12.774,0,0,1,90.618,61.881m0-23.3a10.537,10.537,0,1,0,10.537,10.537A10.549,10.549,0,0,0,90.618,38.583" transform="translate(8.692 4.06)" fill="#fff"/>
        <path id="Path_5177" data-name="Path 5177" d="M134.411,46.974A62.8,62.8,0,0,0,120.985,34.8V64.1a64.668,64.668,0,0,0,13.359-10.969,4.8,4.8,0,0,0,.068-6.157" transform="translate(13.507 3.886)" fill="#fff"/>
        <path id="Path_5178" data-name="Path 5178" d="M128.918,34.083a83.77,83.77,0,0,0-23.851-9.707,89.077,89.077,0,0,0-30.383-1.838C61.209,23.955,38.8,27.546,20.054,36.52V65.872s36.027,15.236,67.213,14.42c15.916-.416,30.672-6.234,41.651-12.7ZM60.374,51.649c-7.356,1.844-30.311,7.014-36.063,1.292a2.471,2.471,0,0,1-.06-3.457c2.466-2.665,10.543-6.815,36.154.879a.667.667,0,0,1-.031,1.286m36.7,17.316a18.241,18.241,0,1,1,18.241-18.242A18.262,18.262,0,0,1,97.071,68.965" transform="translate(2.239 2.457)" fill="#fff"/>
      </g>
    </g>
    <line id="Line_183" data-name="Line 183" y1="0.104" x2="18.5" transform="translate(840 493.5)" fill="none" stroke="#fff" stroke-linecap="round" stroke-width="2"/>
    <line id="Line_196" data-name="Line 196" y1="0.104" x2="18.5" transform="translate(808.875 470.104)" fill="none" stroke="#fff" stroke-linecap="round" stroke-width="2"/>
    <line id="Line_184" data-name="Line 184" x2="32.75" transform="translate(830.75 510.604)" fill="none" stroke="#fff" stroke-linecap="round" stroke-width="2"/>
    <line id="Line_188" data-name="Line 188" x2="27.75" transform="translate(925.75 510.5)" fill="none" stroke="#fff" stroke-linecap="round" stroke-width="2"/>
    <line id="Line_189" data-name="Line 189" y1="0.104" x2="18.5" transform="translate(925.75 420.396)" fill="none" stroke="#fff" stroke-linecap="round" stroke-width="2"/>
    <line id="Line_195" data-name="Line 195" x2="12.25" transform="translate(907.25 409.208)" fill="none" stroke="#fff" stroke-linecap="round" stroke-width="2"/>
    <line id="Line_192" data-name="Line 192" y1="0.104" x2="18.5" transform="translate(957.001 409)" fill="none" stroke="#fff" stroke-linecap="round" stroke-width="2"/>
    <line id="Line_190" data-name="Line 190" y1="0.104" x2="18.5" transform="translate(984.751 436.396)" fill="none" stroke="#fff" stroke-linecap="round" stroke-width="2"/>
    <line id="Line_193" data-name="Line 193" y1="0.104" x2="18.5" transform="translate(991 481.396)" fill="none" stroke="#fff" stroke-linecap="round" stroke-width="2"/>
    <line id="Line_194" data-name="Line 194" y1="0.104" x2="18.5" transform="translate(1000.25 446.396)" fill="none" stroke="#fff" stroke-linecap="round" stroke-width="2"/>
    <line id="Line_191" data-name="Line 191" x2="27.501" transform="translate(966.5 498.396)" fill="none" stroke="#fff" stroke-linecap="round" stroke-width="2"/>
    <line id="Line_185" data-name="Line 185" x2="29" transform="translate(822.125 426)" fill="none" stroke="#fff" stroke-linecap="round" stroke-width="2"/>
    <line id="Line_186" data-name="Line 186" y1="0.104" x2="18.5" transform="translate(826.5 441)" fill="none" stroke="#fff" stroke-linecap="round" stroke-width="2"/>
    <line id="Line_187" data-name="Line 187" y1="0.104" x2="18.5" transform="translate(840 408.896)" fill="none" stroke="#fff" stroke-linecap="round" stroke-width="2"/>
  </g>
</svg>
