<svg xmlns="http://www.w3.org/2000/svg" width="450" height="387.322" viewBox="0 0 450 387.322">
  <path id="Pricing-Free" d="M437.485,387.821h0c-41.367,0-83.638-15.222-125.638-45.239-33.177-23.711-68.433-35.734-104.786-35.734-57.142,0-98.135,29.271-105.773,35.139V19.5a19,19,0,0,1,19-19h412a19,19,0,0,1,19,19V344.45a30.936,30.936,0,0,0-6.84,4.2,152.953,152.953,0,0,1-17.879,13.192,168.746,168.746,0,0,1-24.123,12.679A164.72,164.72,0,0,1,437.485,387.821Z" transform="translate(-101.286 -0.499)" fill="#ea4335"/>
</svg>
