<svg id="Vision" xmlns="http://www.w3.org/2000/svg" xmlns:xlink="http://www.w3.org/1999/xlink" width="110.032" height="137.579" viewBox="0 0 110.032 137.579">
  <defs>
    <clipPath id="clip-path">
      <rect id="Rectangle_18285" data-name="Rectangle 18285" width="110.032" height="137.579" fill="none"/>
    </clipPath>
  </defs>
  <g id="Group_7690" data-name="Group 7690" clip-path="url(#clip-path)">
    <path id="Path_5309" data-name="Path 5309" d="M129.454,31.913c-9.568,3.926-18.776,8.62-28.079,13.112-1.871.9-3.844,1.6-5.77,2.385-2.02-1.634-2.3-4.233-3.315-6.372-2.205-4.648-5.14-9.017-6.1-14.2,8.855-4.893,18.227-8.728,27.252-13.274,1.964-.989,3.969-1.9,5.956-2.841l10.057,21.194" transform="translate(-28.815 -3.584)" fill="#96cbfd"/>
    <path id="Path_5310" data-name="Path 5310" d="M50.187,52.421c5.68-3.5,11.94-5.8,17.888-8.749C70.7,48.887,73.531,54,75.525,59.513L73.7,59.9a7.737,7.737,0,0,0-10.543-2.938,7.044,7.044,0,0,0-2.314,9.989l-3.362.742a63.385,63.385,0,0,1-7.291-15.272" transform="translate(-16.779 -14.601)" fill="#95cafd"/>
    <path id="Path_5311" data-name="Path 5311" d="M145.512,28.33,135.455,7.135c-2.017-4.513-1.706-5.367,1.968-6.865a2.769,2.769,0,0,1,3.445.916c.4,1.017.752,2.058,1.211,3.048,3.851,8.295,8.151,16.382,11.515,24.9-3.608,4.113-5.208,3.953-8.082-.807" transform="translate(-44.873 0)" fill="#75b4f9"/>
    <path id="Path_5312" data-name="Path 5312" d="M38.121,76.287c-4.812,3.013-10.154,4.954-15.194,7.507-1.085-3.977-4.063-7.143-4.821-11.26a109.977,109.977,0,0,1,15.177-6.995c1.7,3.546,4.142,6.753,4.839,10.748" transform="translate(-6.053 -21.911)" fill="#97cafb"/>
    <path id="Path_5313" data-name="Path 5313" d="M83.619,55.7c-1.993-5.51-4.826-10.626-7.45-15.841-.114-.306-.249-.605-.339-.917-.5-1.705-2.744-3.36-.341-5.178,2.267-1.716,4.61-2.379,6.759.272.963,5.188,3.9,9.556,6.1,14.2,1.015,2.139,1.295,4.738,3.315,6.372-.288,1.588.522,3.431-1.713,4.471-3.119,1.451-3.4,1.42-6.331-3.384" transform="translate(-24.874 -10.784)" fill="#75b4f9"/>
    <path id="Path_5314" data-name="Path 5314" d="M65.605,73.132a7.043,7.043,0,0,1,2.314-9.989,7.737,7.737,0,0,1,10.543,2.938c-.032.335-.066.67-.1,1.005a1.273,1.273,0,0,0,.474,1.47c-.2,3.019-1.048,5.7-3.846,7.372-1.944.7-3.973.517-5.978.576-.888-1.375-2.746-1.77-3.408-3.373" transform="translate(-21.544 -20.781)" fill="#75b4f9"/>
    <path id="Path_5315" data-name="Path 5315" d="M45.1,72.582c-.7-3.995-3.143-7.2-4.839-10.748-.09-.423-.158-.851-.272-1.267-.431-1.574-2.1-3.208.137-4.666,2.108-1.373,4.262-2.463,6.314.126A63.408,63.408,0,0,0,53.734,71.3c.569,3.432-2.059,4.181-4.375,5.1-1.124.447-1.827-.292-2.317-1.265A4.895,4.895,0,0,0,45.1,72.582" transform="translate(-13.035 -18.206)" fill="#75b4f9"/>
    <path id="Path_5316" data-name="Path 5316" d="M14.08,74.606c.758,4.117,3.736,7.282,4.821,11.26.932,2.042,1.946,3.8-1.256,5.178-2.627,1.127-3.937.951-5.088-1.762-1.765-4.162-3.767-8.229-5.8-12.269-.869-1.726-1.265-3.1.949-3.971,1.807-.71,3.694-2.725,5.274.356a6.2,6.2,0,0,0,1.1,1.208" transform="translate(-2.028 -23.983)" fill="#75b4f9"/>
    <path id="Path_5317" data-name="Path 5317" d="M156.935,29.732c-3.364-8.52-7.664-16.608-11.515-24.9-.46-.99-.81-2.03-1.211-3.047,5.048.847,7.4,4.666,9.692,8.646,3.493,6.068,5.992,12.244,3.034,19.3" transform="translate(-48.213 -0.596)" fill="#def3fd"/>
    <path id="Path_5318" data-name="Path 5318" d="M100.125,146.287c-11.484-14.17-23.1-28.231-34.423-42.531-3.376-4.264-8.844-7.734-6.894-14.6-5.363.48-5.361.481-5.332-4.317,0-.665-.019-1.33-.029-2-1.944.7-3.973.517-5.978.575q.1,1.687.2,3.376c-.049,1.523-.843,2.143-2.319,1.863-2.832-.538-3.376.979-3.14,3.352.136,1.359.658,2.812-.511,4.023-4.754,5.8-9.542,11.569-14.254,17.4q-12.932,16.006-25.792,32.07c-.139.172-.278.345-.4.528-.7,1.015-2.133,2.032-.483,3.266,1.449,1.084,2.074-.443,2.783-1.251q20.39-23.226,40.745-46.483c.91-1.038,1.843-2.056,3.283-3.661.781,7.941-.037,15.119.851,22.209l.334,19.217a73.9,73.9,0,0,0,.32,12.722,49.212,49.212,0,0,0,.045,5.52c.284,2.5-.787,5.16.866,7.493,1.842.72,2.042-.531,2.081-1.811.07-2.327.047-4.656.079-6.983q.274-19.438.556-38.877.037-5.984.075-11.969-.236.747-.409,1.494a19.562,19.562,0,0,0-.5,4.485,19.562,19.562,0,0,1,.5-4.485q.174-.748.409-1.494c.923-2.113-.16-4.53.987-7,1.351,1.518,2.515,2.813,3.666,4.12q20,22.692,40.016,45.37c.791.9,1.517,2.63,3.15,1.437,1.512-1.1.246-2.181-.475-3.07" transform="translate(0 -27.698)" fill="#171632"/>
  </g>
</svg>
